<svg width="296" height="296" viewBox="0 0 296 296" fill="none" xmlns="http://www.w3.org/2000/svg">
<path d="M246.171 136.219C244.475 115.931 237.622 96.413 226.262 79.5174C208.064 52.611 178.364 38.0774 146.052 45.9984C115.499 53.4931 107.744 86.5741 82.288 101.232C62.752 112.48 33.152 130.832 37.888 163.392C39.4331 174.007 46.4602 181.744 56.0979 186.107C69.2759 192.057 87.7048 189.659 99.456 198.32C113.072 208.384 124.32 222.592 153.92 233.248C177.334 241.678 203.737 231.59 221.408 215.636C243.205 195.999 248.64 164.333 246.171 136.219Z" fill="#FF8F00"/>
<path opacity="0.7" d="M246.171 136.219C244.475 115.931 237.622 96.413 226.262 79.5174C208.064 52.611 178.364 38.0774 146.052 45.9984C115.499 53.4931 107.744 86.5741 82.288 101.232C62.752 112.48 33.152 130.832 37.888 163.392C39.4331 174.007 46.4602 181.744 56.0979 186.107C69.2759 192.057 87.7048 189.659 99.456 198.32C113.072 208.384 124.32 222.592 153.92 233.248C177.334 241.678 203.737 231.59 221.408 215.636C243.205 195.999 248.64 164.333 246.171 136.219Z" fill="white"/>
<path d="M254.82 243.028L250.795 239.05C254.146 234.195 252.701 230.62 249.824 227.328C248.089 225.345 243.555 225.647 237.984 226.363L207.2 195.952L202.464 197.728C202.464 197.728 215.275 213.327 227.275 227.671C222.29 228.115 217.276 228.121 213.12 226.736C200.688 222.592 190.624 213.712 190.624 213.712C176.416 214.896 197.728 237.984 206.016 244.496C222.592 257.52 231.401 255.152 243.17 246.379C245.283 248.794 246.811 250.457 247.456 251.008L247.58 251.115C252.885 255.519 259.722 247.876 254.82 243.028Z" fill="#FF8F00"/>
<path opacity="0.5" d="M254.82 243.028L250.795 239.05C254.146 234.195 252.701 230.62 249.824 227.328C248.089 225.345 243.555 225.647 237.984 226.363L207.2 195.952L202.464 197.728C202.464 197.728 215.275 213.327 227.275 227.671C222.29 228.115 217.276 228.121 213.12 226.736C200.688 222.592 190.624 213.712 190.624 213.712C176.416 214.896 197.278 238.606 206.016 244.496C225.552 257.65 231.401 255.152 243.17 246.379C245.283 248.794 246.811 250.457 247.456 251.008L247.58 251.115C252.885 255.519 259.722 247.876 254.82 243.028Z" fill="white"/>
<path d="M66.7243 135.752C66.7243 135.752 82.2939 153.748 82.3768 176.043C82.4597 198.338 67.0321 216.483 67.0321 216.483C67.0321 216.483 51.4625 198.486 51.3797 176.197C51.2968 153.908 66.7243 135.752 66.7243 135.752Z" fill="#FF8F00"/>
<path d="M100.936 186.746C100.936 186.746 101.031 201.398 93.1631 210.711C85.2954 220.023 72.4431 220.473 72.4431 220.473C72.4431 220.473 72.3424 205.821 80.216 196.508C88.0896 187.196 100.936 186.746 100.936 186.746Z" fill="#FF8F00"/>
<path d="M33.3118 185.391C33.3118 185.391 32.6606 200.025 40.1731 209.71C47.6856 219.395 60.5142 220.473 60.5142 220.473C60.5142 220.473 61.1595 205.838 53.647 196.153C46.1345 186.468 33.3118 185.391 33.3118 185.391Z" fill="#FF8F00"/>
<g opacity="0.5">
<path d="M66.7243 135.752C66.7243 135.752 82.2939 153.748 82.3768 176.043C82.4597 198.338 67.0321 216.483 67.0321 216.483C67.0321 216.483 51.4625 198.486 51.3797 176.197C51.2968 153.908 66.7243 135.752 66.7243 135.752Z" fill="white"/>
<path d="M100.936 186.746C100.936 186.746 101.031 201.398 93.1631 210.711C85.2954 220.023 72.4431 220.473 72.4431 220.473C72.4431 220.473 72.3424 205.821 80.216 196.508C88.0896 187.196 100.936 186.746 100.936 186.746Z" fill="white"/>
<path d="M33.3118 185.391C33.3118 185.391 32.6606 200.025 40.1731 209.71C47.6856 219.395 60.5142 220.473 60.5142 220.473C60.5142 220.473 61.1595 205.838 53.647 196.153C46.1345 186.468 33.3118 185.391 33.3118 185.391Z" fill="white"/>
</g>
<path d="M57.1694 195.887C57.197 195.835 57.2364 195.791 57.2845 195.758C57.3325 195.725 57.3878 195.704 57.4457 195.696C57.5035 195.689 57.5624 195.695 57.6173 195.715C57.6722 195.735 57.7216 195.767 57.7614 195.81L65.9429 203.121C66.0062 203.17 66.0827 203.2 66.1628 203.206C66.2429 203.212 66.3231 203.195 66.3932 203.156C66.4633 203.116 66.5203 203.057 66.5571 202.986C66.5939 202.915 66.6088 202.834 66.6 202.754L66.5112 185.888C66.5104 185.761 66.4618 185.638 66.375 185.545L54.091 173.166C54.0088 173.079 53.96 172.966 53.9535 172.847C53.947 172.728 53.9832 172.61 54.0555 172.515C54.087 172.467 54.1292 172.427 54.1788 172.398C54.2284 172.369 54.284 172.351 54.3413 172.347C54.3986 172.343 54.456 172.353 54.5091 172.374C54.5623 172.396 54.6096 172.43 54.6475 172.473L65.8541 183.769C65.9136 183.827 65.9898 183.864 66.0719 183.877C66.1541 183.889 66.2381 183.875 66.312 183.837C66.3859 183.799 66.446 183.739 66.4839 183.665C66.5218 183.591 66.5354 183.507 66.523 183.425L66.452 164.866C66.4536 164.738 66.4047 164.615 66.3158 164.523L58.164 156.507C58.0809 156.421 58.031 156.308 58.0234 156.189C58.0158 156.07 58.051 155.952 58.1226 155.856C58.1536 155.807 58.1954 155.767 58.2447 155.737C58.294 155.708 58.3495 155.69 58.4068 155.685C58.4641 155.681 58.5217 155.689 58.5751 155.711C58.6285 155.732 58.6762 155.766 58.7146 155.808L65.7534 162.8C66.0139 163.06 66.4224 162.847 66.4224 162.451L66.304 136.213C66.2974 136.099 66.3359 135.987 66.4112 135.9C66.4864 135.814 66.5924 135.761 66.7066 135.752C66.7633 135.755 66.819 135.769 66.8702 135.793C66.9215 135.818 66.9675 135.852 67.0054 135.895C67.0434 135.937 67.0726 135.986 67.0914 136.04C67.1102 136.094 67.1182 136.151 67.115 136.207L67.263 175.054C67.2529 175.145 67.2737 175.236 67.3221 175.313C67.3705 175.39 67.4436 175.449 67.5294 175.479C67.6153 175.509 67.7089 175.509 67.7949 175.48C67.8809 175.45 67.9543 175.392 68.003 175.315L77.1198 160.118C77.1461 160.07 77.1824 160.029 77.2263 159.996C77.2701 159.964 77.3204 159.941 77.3739 159.93C77.4273 159.919 77.4825 159.919 77.5357 159.931C77.5889 159.943 77.6389 159.967 77.6822 160C77.7725 160.077 77.8327 160.183 77.8522 160.3C77.8717 160.417 77.8492 160.537 77.7888 160.639L67.34 178.05L67.2749 177.997L67.3341 193.916C67.3238 193.998 67.3392 194.081 67.378 194.154C67.4168 194.227 67.4772 194.287 67.551 194.324C67.6248 194.362 67.7083 194.375 67.7903 194.364C67.8722 194.352 67.9486 194.316 68.009 194.259L79.1267 182.869C79.1635 182.824 79.2103 182.789 79.2633 182.766C79.3163 182.743 79.374 182.733 79.4317 182.736C79.4894 182.74 79.5455 182.757 79.5954 182.786C79.6453 182.815 79.6875 182.856 79.7187 182.904C79.7911 182.999 79.8272 183.117 79.8207 183.236C79.8142 183.356 79.7655 183.469 79.6832 183.556L67.3637 196.183L67.4406 216.027C67.4447 216.084 67.4374 216.141 67.4194 216.194C67.4013 216.248 67.3727 216.298 67.3353 216.341C67.2979 216.384 67.2524 216.419 67.2014 216.445C67.1504 216.47 67.0949 216.485 67.0381 216.488C66.981 216.486 66.925 216.473 66.8734 216.448C66.8217 216.424 66.7755 216.39 66.7374 216.347C66.6993 216.305 66.6701 216.255 66.6516 216.201C66.6331 216.147 66.6256 216.09 66.6296 216.033L66.5882 205.116C66.5891 205.049 66.5758 204.982 66.5493 204.919C66.5228 204.857 66.4836 204.801 66.4342 204.755L57.2405 196.544C57.1513 196.461 57.095 196.35 57.0819 196.229C57.0689 196.108 57.1 195.987 57.1694 195.887Z" fill="white"/>
<path d="M33.744 186.356C33.7819 186.313 33.8293 186.279 33.8824 186.257C33.9355 186.235 33.993 186.226 34.0503 186.23C34.1076 186.234 34.1632 186.251 34.2127 186.28C34.2623 186.309 34.3045 186.349 34.336 186.397L46.6851 202.109C46.9456 202.446 47.437 202.198 47.3837 201.748L46.3714 192.584C46.3505 192.469 46.3754 192.351 46.4407 192.255C46.506 192.158 46.6065 192.091 46.7206 192.068C46.7765 192.064 46.8328 192.07 46.886 192.088C46.9393 192.105 46.9885 192.133 47.0305 192.171C47.0726 192.208 47.1067 192.253 47.1308 192.303C47.1548 192.354 47.1684 192.409 47.1706 192.465L48.4966 204.406L53.28 210.545C53.3319 210.609 53.4024 210.655 53.4817 210.677C53.561 210.699 53.6452 210.696 53.7227 210.668C53.8001 210.64 53.8669 210.588 53.9138 210.521C53.9607 210.453 53.9854 210.373 53.9845 210.29L54.8547 201.529C54.857 201.472 54.8705 201.417 54.8944 201.365C54.9183 201.314 54.9522 201.268 54.9941 201.23C55.036 201.192 55.085 201.163 55.1383 201.144C55.1916 201.125 55.2482 201.117 55.3046 201.12C55.4186 201.142 55.5196 201.207 55.586 201.302C55.6524 201.397 55.6789 201.515 55.6598 201.629L54.6238 212.025C54.6096 212.154 54.6457 212.283 54.7245 212.386L61.1714 220.597C61.2434 220.692 61.2799 220.809 61.2745 220.928C61.269 221.047 61.2221 221.16 61.1418 221.248C61.1043 221.292 61.0573 221.326 61.0044 221.348C60.9516 221.371 60.8943 221.38 60.837 221.377C60.7797 221.373 60.724 221.357 60.6742 221.328C60.6243 221.3 60.5818 221.26 60.5498 221.213L57.0688 216.779C57.0312 216.728 56.9819 216.688 56.9251 216.661C56.8684 216.634 56.8059 216.622 56.7432 216.625L50.32 217.069C50.2633 217.069 50.2071 217.057 50.1546 217.036C50.1022 217.014 50.0546 216.982 50.0144 216.942C49.9743 216.902 49.9425 216.854 49.9207 216.802C49.899 216.749 49.8878 216.693 49.8878 216.636C49.876 216.521 49.9095 216.405 49.9812 216.313C50.053 216.222 50.1574 216.161 50.2726 216.145L55.4171 215.79C55.4975 215.774 55.5726 215.738 55.6349 215.685C55.6972 215.632 55.7447 215.564 55.7727 215.487C55.8008 215.41 55.8084 215.327 55.7948 215.246C55.7813 215.166 55.747 215.09 55.6954 215.026L50.5391 208.461C50.5032 208.415 50.4574 208.378 50.4051 208.352C50.3528 208.327 50.2954 208.313 50.2371 208.313H41.0493C40.9352 208.304 40.8291 208.25 40.7539 208.164C40.6786 208.078 40.6402 207.966 40.6467 207.851C40.6427 207.794 40.6499 207.737 40.668 207.683C40.6861 207.629 40.7147 207.58 40.7521 207.537C40.7895 207.494 40.835 207.459 40.886 207.433C40.937 207.408 40.9925 207.393 41.0493 207.389H48.7926C48.8818 207.386 48.9682 207.358 49.042 207.308C49.1159 207.258 49.1741 207.188 49.2099 207.107C49.2458 207.025 49.2579 206.935 49.2448 206.847C49.2317 206.758 49.194 206.676 49.136 206.608L43.4528 199.368C43.417 199.32 43.3705 199.281 43.3171 199.255C43.2636 199.228 43.2047 199.214 43.145 199.214L37.225 199.297C37.1682 199.294 37.1126 199.28 37.0613 199.255C37.01 199.23 36.9641 199.196 36.9261 199.154C36.8882 199.111 36.859 199.062 36.8401 199.008C36.8213 198.955 36.8133 198.898 36.8165 198.841C36.8116 198.784 36.8181 198.727 36.8354 198.673C36.8527 198.618 36.8806 198.568 36.9175 198.525C36.9544 198.481 36.9995 198.445 37.0502 198.419C37.1009 198.393 37.1563 198.378 37.2131 198.373L41.7123 198.314C41.7953 198.302 41.8735 198.268 41.9389 198.215C42.0044 198.163 42.0547 198.094 42.0848 198.016C42.1149 197.937 42.1237 197.853 42.1103 197.77C42.0968 197.687 42.0617 197.609 42.0083 197.544L33.744 187.007C33.6679 186.915 33.6263 186.8 33.6263 186.681C33.6263 186.562 33.6679 186.447 33.744 186.356Z" fill="white"/>
<path d="M75.6398 207.366C75.6958 207.362 75.7521 207.369 75.8054 207.387C75.8586 207.404 75.9078 207.433 75.9502 207.469C75.9925 207.506 76.0272 207.551 76.0522 207.601C76.0771 207.652 76.0919 207.706 76.0957 207.762L76.7883 213.582C76.789 213.662 76.814 213.74 76.8598 213.805C76.9057 213.871 76.9704 213.921 77.0453 213.949C77.1203 213.978 77.202 213.983 77.2798 213.963C77.3575 213.944 77.4277 213.902 77.481 213.842L82.8386 207.502C82.9185 207.402 82.9567 207.274 82.9451 207.147L82.288 196.704C82.2728 196.589 82.3035 196.473 82.3733 196.381C82.4432 196.289 82.5466 196.229 82.661 196.212C82.7172 196.211 82.7731 196.221 82.8255 196.241C82.8778 196.261 82.9256 196.292 82.9659 196.331C83.0061 196.371 83.0382 196.417 83.06 196.469C83.0819 196.521 83.0931 196.577 83.0931 196.633L83.6851 205.436C83.6828 205.518 83.7055 205.599 83.7503 205.667C83.7951 205.736 83.8599 205.789 83.9358 205.82C84.0118 205.851 84.0954 205.858 84.1754 205.84C84.2555 205.822 84.3281 205.78 84.3837 205.72L90.3037 198.717C90.3836 198.614 90.4235 198.486 90.4162 198.356L89.9011 191.654C89.8871 191.539 89.9172 191.423 89.9853 191.33C90.0535 191.237 90.1546 191.173 90.2682 191.151C90.3246 191.149 90.3808 191.159 90.4335 191.179C90.4862 191.2 90.5344 191.23 90.5751 191.269C90.6159 191.309 90.6485 191.355 90.671 191.407C90.6935 191.459 90.7055 191.515 90.7062 191.571L91.097 196.674C91.094 196.756 91.1162 196.836 91.1607 196.905C91.2052 196.973 91.2697 197.026 91.3455 197.057C91.4213 197.087 91.5046 197.094 91.584 197.075C91.6635 197.056 91.7353 197.013 91.7896 196.952L100.403 186.758C100.438 186.713 100.483 186.676 100.534 186.651C100.585 186.625 100.642 186.612 100.699 186.612C100.756 186.612 100.813 186.625 100.864 186.651C100.916 186.676 100.96 186.713 100.995 186.758C101.071 186.85 101.113 186.965 101.113 187.084C101.113 187.203 101.071 187.318 100.995 187.409L88.1606 202.606C87.8824 202.932 88.1606 203.464 88.5277 203.376L96.4782 201.535C96.5333 201.525 96.5896 201.528 96.6438 201.541C96.698 201.554 96.7488 201.579 96.7932 201.613C96.8376 201.646 96.8745 201.689 96.9018 201.738C96.9291 201.786 96.9461 201.84 96.9518 201.896C96.978 202.009 96.9601 202.129 96.9019 202.23C96.8437 202.331 96.7495 202.406 96.6381 202.44L86.2366 204.832L81.2224 210.752C81.1662 210.815 81.1281 210.893 81.112 210.976C81.0959 211.059 81.1023 211.145 81.1308 211.225C81.1592 211.305 81.2085 211.375 81.2735 211.43C81.3386 211.484 81.417 211.52 81.5006 211.533L89.2322 211.871C89.289 211.876 89.3443 211.892 89.3948 211.919C89.4452 211.946 89.4899 211.982 89.5262 212.026C89.5626 212.07 89.5898 212.121 89.6064 212.176C89.623 212.23 89.6286 212.288 89.6229 212.344C89.6253 212.401 89.6162 212.458 89.5961 212.511C89.5761 212.564 89.5455 212.612 89.5062 212.653C89.467 212.694 89.4198 212.727 89.3676 212.749C89.3154 212.771 89.2593 212.783 89.2026 212.783L80.0266 212.386C79.9677 212.384 79.9093 212.396 79.8559 212.421C79.8024 212.445 79.7555 212.482 79.7187 212.528L73.0173 220.461C72.9825 220.506 72.9377 220.543 72.8863 220.568C72.835 220.594 72.7785 220.607 72.7213 220.607C72.664 220.607 72.6076 220.594 72.5562 220.568C72.5049 220.543 72.4601 220.506 72.4253 220.461C72.3492 220.369 72.3076 220.254 72.3076 220.135C72.3076 220.016 72.3492 219.901 72.4253 219.81L76.0483 215.524C76.0906 215.471 76.1219 215.41 76.1402 215.345C76.1585 215.28 76.1635 215.212 76.1549 215.145L75.2906 207.875C75.2743 207.762 75.3012 207.647 75.3659 207.552C75.4306 207.458 75.5284 207.391 75.6398 207.366Z" fill="white"/>
<path d="M223.302 195.023L135.361 219.774C134.412 220.008 133.413 219.933 132.509 219.56C131.605 219.187 130.844 218.537 130.335 217.702L63.6459 97.68C63.4197 97.3233 63.2835 96.9172 63.2488 96.4963C63.2141 96.0754 63.2821 95.6524 63.4468 95.2635C63.6116 94.8746 63.8682 94.5316 64.1947 94.2637C64.5211 93.9958 64.9077 93.8111 65.3213 93.7254L153.263 68.9739C154.211 68.7393 155.208 68.8132 156.111 69.1848C157.014 69.5564 157.775 70.2063 158.283 71.04L224.96 191.062C225.186 191.418 225.323 191.823 225.358 192.243C225.394 192.663 225.328 193.086 225.165 193.475C225.002 193.864 224.748 194.208 224.423 194.477C224.099 194.747 223.715 194.934 223.302 195.023Z" fill="#263238" stroke="black" stroke-miterlimit="10"/>
<path d="M134.123 214.511C134.123 214.511 184.941 202.423 219.147 190.577L134.123 214.511Z" fill="#884849"/>
<path d="M219.147 190.577L134.123 214.511L68.3582 96.1586L153.381 72.2299L219.147 190.577Z" fill="white" stroke="#263238" stroke-miterlimit="10"/>
<path d="M128.198 97.2952L134.798 95.4363" stroke="#263238" stroke-miterlimit="10"/>
<path d="M82.4123 110.183L123.089 98.7338" stroke="#263238" stroke-miterlimit="10"/>
<path d="M120.957 104.648L137.356 100.03" stroke="#263238" stroke-miterlimit="10"/>
<path d="M95.827 111.722L116.482 105.909" stroke="#263238" stroke-miterlimit="10"/>
<path d="M84.9638 114.777L91.9908 112.8" stroke="#263238" stroke-miterlimit="10"/>
<path d="M107.963 113.623L139.913 104.63" stroke="#263238" stroke-miterlimit="10"/>
<path d="M87.5212 119.377L100.936 115.6" stroke="#263238" stroke-miterlimit="10"/>
<path d="M157.803 93.832C156.963 92.4573 155.707 91.3852 154.217 90.7702C152.728 90.1553 151.081 90.0292 149.515 90.4102C146.455 91.2746 145.218 94.199 146.745 96.9518C147.584 98.3285 148.839 99.4023 150.33 100.018C151.82 100.633 153.467 100.757 155.033 100.374C158.064 99.5152 159.331 96.5848 157.803 93.832Z" fill="white" stroke="#263238" stroke-miterlimit="10"/>
<path d="M100.403 128.819L93.8024 130.678" stroke="#263238" stroke-miterlimit="10"/>
<path d="M146.188 115.931L105.512 127.381" stroke="#263238" stroke-miterlimit="10"/>
<path d="M112.752 130.66L96.3539 135.278" stroke="#263238" stroke-miterlimit="10"/>
<path d="M137.883 123.586L117.228 129.399" stroke="#263238" stroke-miterlimit="10"/>
<path d="M148.746 120.531L141.719 122.508" stroke="#263238" stroke-miterlimit="10"/>
<path d="M130.856 130.879L98.9113 139.872" stroke="#263238" stroke-miterlimit="10"/>
<path d="M151.303 125.125L137.883 128.902" stroke="#263238" stroke-miterlimit="10"/>
<path d="M169.194 114.333C168.355 112.956 167.099 111.882 165.609 111.267C164.119 110.652 162.471 110.527 160.906 110.911C157.845 111.77 156.608 114.7 158.135 117.423C158.973 118.801 160.229 119.875 161.719 120.49C163.21 121.106 164.857 121.23 166.423 120.845C169.478 120.01 170.721 117.08 169.194 114.333Z" fill="white" stroke="#263238" stroke-miterlimit="10"/>
<path d="M150.978 138.285L157.579 136.426" stroke="#263238" stroke-miterlimit="10"/>
<path d="M105.192 151.173L145.869 139.724" stroke="#263238" stroke-miterlimit="10"/>
<path d="M143.738 145.644L160.136 141.026" stroke="#263238" stroke-miterlimit="10"/>
<path d="M118.607 152.718L139.262 146.899" stroke="#263238" stroke-miterlimit="10"/>
<path d="M107.744 155.773L114.771 153.796" stroke="#263238" stroke-miterlimit="10"/>
<path d="M130.743 154.613L162.687 145.626" stroke="#263238" stroke-miterlimit="10"/>
<path d="M110.301 160.373L123.716 156.596" stroke="#263238" stroke-miterlimit="10"/>
<path d="M180.95 138.705C181.965 136.125 180.14 132.992 176.875 131.709C173.61 130.425 170.141 131.477 169.127 134.057C168.113 136.637 169.937 139.77 173.202 141.053C176.467 142.337 179.936 141.285 180.95 138.705Z" fill="white" stroke="#263238" stroke-miterlimit="10"/>
<path d="M123.183 169.815L116.583 171.674" stroke="#263238" stroke-miterlimit="10"/>
<path d="M168.969 156.927L128.292 168.377" stroke="#263238" stroke-miterlimit="10"/>
<path d="M135.532 171.656L119.134 176.268" stroke="#263238" stroke-miterlimit="10"/>
<path d="M160.663 164.582L140.008 170.395" stroke="#263238" stroke-miterlimit="10"/>
<path d="M171.526 161.521L164.499 163.499" stroke="#263238" stroke-miterlimit="10"/>
<path d="M153.636 171.875L121.692 180.868" stroke="#263238" stroke-miterlimit="10"/>
<path d="M174.078 166.121L160.663 169.898" stroke="#263238" stroke-miterlimit="10"/>
<path d="M191.968 155.323C191.128 153.947 189.873 152.874 188.383 152.259C186.893 151.644 185.246 151.518 183.68 151.901C180.619 152.766 179.382 155.69 180.909 158.443C181.748 159.82 183.004 160.893 184.494 161.509C185.984 162.124 187.631 162.249 189.197 161.865C192.258 161.024 193.501 158.064 191.968 155.323Z" fill="white" stroke="#263238" stroke-miterlimit="10"/>
<path d="M173.758 179.281L180.359 177.422" stroke="#263238" stroke-miterlimit="10"/>
<path d="M127.973 192.169L168.649 180.72" stroke="#263238" stroke-miterlimit="10"/>
<path d="M166.518 186.634L182.916 182.022" stroke="#263238" stroke-miterlimit="10"/>
<path d="M141.387 193.708L162.042 187.895" stroke="#263238" stroke-miterlimit="10"/>
<path d="M130.524 196.769L137.551 194.786" stroke="#263238" stroke-miterlimit="10"/>
<path d="M153.523 195.609L185.468 186.616" stroke="#263238" stroke-miterlimit="10"/>
<path d="M133.082 201.363L146.496 197.586" stroke="#263238" stroke-miterlimit="10"/>
<path d="M203.729 179.697C204.743 177.116 202.919 173.984 199.654 172.701C196.389 171.417 192.92 172.469 191.905 175.049C190.891 177.629 192.715 180.762 195.98 182.045C199.245 183.329 202.715 182.277 203.729 179.697Z" fill="white" stroke="#263238" stroke-miterlimit="10"/>
<path d="M124.598 74.2368L113.421 77.3803C112.575 77.4158 111.645 77.3507 111.385 76.9186C110.793 75.8056 111.551 74.7637 111.787 73.781C112.061 72.6483 111.885 71.4534 111.296 70.448C110.433 69.0337 109.142 67.9309 107.611 67.2997C106.079 66.6685 104.386 66.5416 102.777 66.9374C99.6395 67.8254 98.3726 70.8269 99.9355 73.6448C100.702 74.9464 101.852 75.98 103.227 76.6048C103.227 76.6048 105.494 77.6171 105.95 78.4341C106.193 78.8662 105.559 79.3754 104.914 79.7602L92.867 83.1523C92.4127 83.2478 91.9884 83.4518 91.63 83.7468C91.2717 84.0419 90.9901 84.4193 90.8092 84.8467C90.6283 85.2742 90.5536 85.7391 90.5913 86.2017C90.629 86.6644 90.7781 87.111 91.0259 87.5035L92.6539 90.428L131.767 79.4227L130.139 76.4923C129.577 75.575 128.735 74.8614 127.739 74.4557C126.742 74.0499 125.642 73.9732 124.598 74.2368ZM104.689 70.4125C105.205 70.2848 105.747 70.3251 106.238 70.5274C106.729 70.7297 107.143 71.0835 107.418 71.5373C107.541 71.7308 107.615 71.9512 107.633 72.1795C107.652 72.4079 107.615 72.6373 107.525 72.8481C107.435 73.0588 107.296 73.2447 107.118 73.3897C106.941 73.5346 106.731 73.6344 106.507 73.6803C105.993 73.8081 105.451 73.7685 104.962 73.5673C104.472 73.366 104.059 73.0136 103.783 72.5614C103.661 72.3678 103.587 72.1475 103.568 71.9192C103.55 71.6909 103.586 71.4615 103.675 71.2504C103.764 71.0394 103.903 70.8529 104.079 70.707C104.256 70.5611 104.465 70.4601 104.689 70.4125Z" fill="#FF8F00" stroke="#263238" stroke-miterlimit="10"/>
<path d="M148.716 94.1754L153.541 97.5438L158.514 86.3965" stroke="#FF8F00" stroke-width="6" stroke-linecap="round" stroke-linejoin="round"/>
<path d="M159.929 114.357L164.754 117.719L169.726 106.578" stroke="#FF8F00" stroke-width="6" stroke-linecap="round" stroke-linejoin="round"/>
<path d="M239.061 111.598C239.061 111.598 240.346 108.863 239.541 106.767C238.736 104.672 223.918 101.291 223.918 101.291C223.918 101.291 220.538 101.291 220.698 103.227C220.857 105.163 233.1 112.569 234.065 113.208C235.03 113.848 238.736 115.304 239.061 111.598Z" fill="white" stroke="#263238" stroke-linecap="round" stroke-linejoin="round"/>
<path d="M225.144 98.5858C224.231 98.248 223.336 97.8647 222.462 97.4373C221.183 96.7979 222.586 99.7402 223.101 99.8645C223.616 99.9888 224.877 100.249 224.877 100.249L225.144 98.5858Z" fill="white" stroke="#263238" stroke-linecap="round" stroke-linejoin="round"/>
<path d="M180.921 127.221L173.515 136.237L174.155 137.528L184.627 134.976L258.337 92.0678C259.073 91.6372 259.715 91.0636 260.226 90.3808C260.737 89.698 261.105 88.9199 261.311 88.0923C261.516 87.2647 261.553 86.4043 261.421 85.562C261.288 84.7197 260.989 83.9125 260.539 83.1878C260.09 82.4702 259.503 81.849 258.812 81.3605C258.12 80.872 257.338 80.5259 256.512 80.3425C255.686 80.159 254.831 80.1418 253.998 80.2918C253.165 80.4419 252.37 80.7562 251.659 81.2165L180.921 127.221Z" fill="#FF8F00" stroke="#263238" stroke-linecap="round" stroke-linejoin="round"/>
<path d="M217.957 110.509L215.553 112.06" stroke="#263238" stroke-linecap="round" stroke-linejoin="round"/>
<path d="M238.647 97.2005L220.893 108.626" stroke="#263238" stroke-linecap="round" stroke-linejoin="round"/>
<path d="M174.202 136.048C174.202 136.048 172.361 136.817 172.645 137.593C172.929 138.368 175.569 136.492 175.569 136.492L174.202 136.048Z" fill="#FF8F00" stroke="#263238" stroke-linecap="round" stroke-linejoin="round"/>
<path d="M173.515 136.237L174.155 137.528L184.627 134.976C178.825 132.72 180.921 127.244 180.921 127.244L173.515 136.237Z" fill="white" stroke="#263238" stroke-linecap="round" stroke-linejoin="round"/>
<path d="M260.539 83.1464C260.09 82.4287 259.503 81.8075 258.812 81.3191C258.12 80.8306 257.339 80.4845 256.512 80.301C255.686 80.1176 254.831 80.1004 253.998 80.2504C253.165 80.4005 252.37 80.7148 251.659 81.175L238.801 89.5459C238.455 90.4284 238.278 91.3684 238.28 92.3165C238.243 94.2172 238.961 96.0551 240.275 97.4284C241.59 98.8018 243.395 99.5989 245.295 99.6454L258.361 92.0442C259.097 91.6116 259.739 91.0357 260.249 90.3506C260.759 89.6655 261.127 88.8851 261.33 88.0555C261.533 87.226 261.568 86.3641 261.432 85.5209C261.296 84.6777 260.992 83.8703 260.539 83.1464Z" fill="white" stroke="#263238" stroke-linecap="round" stroke-linejoin="round"/>
<path d="M260.539 83.1464C260.09 82.4287 259.503 81.8075 258.812 81.3191C258.12 80.8306 257.339 80.4845 256.512 80.301C255.686 80.1176 254.831 80.1004 253.998 80.2504C253.165 80.4005 252.37 80.7148 251.659 81.175L241.891 87.539C241.419 88.5133 241.174 89.5821 241.175 90.6648C241.162 91.5863 241.332 92.5012 241.673 93.3571C242.015 94.2131 242.522 94.9933 243.165 95.6532C243.808 96.313 244.575 96.8395 245.422 97.2025C246.269 97.5656 247.18 97.758 248.101 97.7688C248.261 97.7688 248.427 97.7688 248.581 97.7688L258.361 92.0797C259.102 91.6472 259.749 91.0697 260.262 90.3818C260.775 89.6939 261.144 88.9096 261.347 88.0758C261.551 87.242 261.584 86.3757 261.445 85.5288C261.306 84.6819 260.998 83.8716 260.539 83.1464Z" fill="#263238" stroke="#263238" stroke-linecap="round" stroke-linejoin="round"/>
<path d="M216.968 101.528C216.968 101.528 215.535 101.528 215.535 102.179C215.535 102.83 215.156 105.139 215.985 105.074C216.814 105.009 216.743 103.559 216.814 103.049C216.885 102.54 216.968 101.528 216.968 101.528Z" fill="white" stroke="#263238" stroke-linecap="round" stroke-linejoin="round"/>
<path d="M218.531 99.1718C218.531 99.1718 217.252 98.7752 216.956 99.5626C216.66 100.35 216.364 104.091 217.252 103.991C218.14 103.89 218.336 100.551 218.531 99.1718Z" fill="white" stroke="#263238" stroke-linecap="round" stroke-linejoin="round"/>
<path d="M220.502 99.3672C220.502 99.3672 219.022 98.0885 218.531 99.1718C218.04 100.255 217.939 103.316 218.531 103.316C219.123 103.316 220.011 102.037 220.206 101.35C220.354 100.698 220.452 100.035 220.502 99.3672Z" fill="white" stroke="#263238" stroke-linecap="round" stroke-linejoin="round"/>
<path d="M222.592 99.9592C222.592 99.9592 220.721 98.3845 220.425 98.6805C220.129 98.9765 218.945 102.008 219.833 102.617C220.721 103.227 221.846 100.504 221.846 100.504L222.592 99.9592Z" fill="white" stroke="#263238" stroke-linecap="round" stroke-linejoin="round"/>
<path d="M195.555 109.301C195.555 109.301 195.763 112.456 196.603 113.196C197.111 113.636 197.57 114.131 197.971 114.67C198.087 115.473 198.158 116.281 198.184 117.092C198.184 118.039 198.817 117.932 199.368 117.932C199.918 117.932 200.842 119.708 201.369 120.561C202.373 121.801 203.572 122.869 204.921 123.722C205.868 124.249 207.449 122.248 207.449 122.248L208.183 124.356L215.66 119.513L211.977 112.35C211.76 109.867 211.004 107.461 209.763 105.299C207.656 101.51 204.814 99.379 200.078 100.77C195.342 102.161 195.555 109.301 195.555 109.301Z" fill="white" stroke="#263238" stroke-linecap="round" stroke-linejoin="round"/>
<path d="M204.204 95.2706C202.439 95.3478 200.695 95.6972 199.036 96.3066C196.272 97.2834 195.591 101.131 193.181 102.511C190.772 103.89 191.802 101.327 190.594 101.99C189.387 102.653 188.185 108.709 190.766 110.432C193.347 112.154 197.142 109.917 197.142 109.917C197.142 109.917 196.799 111.101 197.829 111.468C198.452 111.674 199.086 111.846 199.729 111.983C199.729 111.983 199.551 114.055 201.102 113.877C202.653 113.7 201.28 111.296 201.28 111.296C201.28 111.296 204.21 116.979 206.454 117.672C208.698 118.364 211.966 115.256 212.824 113.877C213.682 112.498 212.996 102.682 211.101 98.8936C209.207 95.1048 204.204 95.2706 204.204 95.2706Z" fill="#263238" stroke="#263238" stroke-linecap="round" stroke-linejoin="round"/>
<path d="M201.345 114.984C201.345 114.984 200.291 110.982 201.973 111.509C203.654 112.036 204.607 115.618 204.501 116.038C204.394 116.458 203.553 116.665 203.133 116.565" fill="white"/>
<path d="M201.345 114.984C201.345 114.984 200.291 110.982 201.973 111.509C203.654 112.036 204.607 115.618 204.501 116.038C204.394 116.458 203.553 116.665 203.133 116.565" stroke="#263238" stroke-linecap="round" stroke-linejoin="round"/>
<path d="M213.511 116.435C211.548 117.538 209.672 118.788 207.899 120.176C206.123 121.757 204.53 126.493 204.53 126.493C204.53 126.493 215.376 119.122 217.27 118.074C219.164 117.027 219.585 116.494 219.585 116.494C219.585 116.494 215.618 115.908 213.511 116.435Z" fill="white" stroke="#263238" stroke-linecap="round" stroke-linejoin="round"/>
<path d="M228.109 109.988C228.568 109.176 229.191 108.47 229.94 107.916C230.688 107.361 231.545 106.97 232.455 106.767C235.515 106.122 239.559 108.218 240.026 111.598C240.494 114.978 237.931 116.594 236.32 116.594C234.71 116.594 233.26 114.339 233.26 114.339C233.26 114.339 228.109 112.403 228.109 109.988Z" fill="white" stroke="#263238" stroke-linecap="round" stroke-linejoin="round"/>
<path d="M184.947 145.904L190.103 132.211C189.527 132.727 188.781 133.014 188.007 133.016C186.717 133.016 183.662 132.537 184.455 132.052C185.249 131.566 188.315 129.476 188.315 129.476C188.315 129.476 186.066 129.962 185.42 129.476C184.775 128.991 184.455 128.346 184.935 128.186C185.414 128.026 186.385 128.186 188.155 127.54C189.925 126.895 190.731 126.256 192.181 126.256C193.631 126.256 194.922 128.831 194.922 129.636C194.922 130.441 193.791 145.739 193.791 146.384C193.791 147.029 193.791 147.674 189.606 148.16C185.42 148.645 184.787 147.674 184.947 145.904Z" fill="white" stroke="#263238" stroke-linecap="round" stroke-linejoin="round"/>
<path d="M190.103 132.211L190.867 129.204" stroke="#263238" stroke-linecap="round" stroke-linejoin="round"/>
<path d="M189.937 142.518C189.937 142.518 184.787 143.968 183.822 146.224C182.857 148.48 183.017 151.86 184.947 153.796C186.877 155.732 187.688 156.211 189.777 155.406C191.867 154.601 192.359 153.31 192.518 152.02C192.678 150.729 193.803 146.384 189.937 142.518Z" fill="white" stroke="#263238" stroke-linecap="round" stroke-linejoin="round"/>
<path d="M187.848 210.805C187.848 210.805 183.336 208.71 181.566 209.515C179.796 210.32 179.79 211.125 182.046 214.671C184.301 218.217 190.583 222.562 192.702 221.592C194.821 220.621 192.862 214.186 192.862 214.186L187.848 210.805Z" fill="white" stroke="#263238" stroke-linecap="round" stroke-linejoin="round"/>
<path d="M184.627 215.796C183.062 214.063 181.747 212.12 180.72 210.024C179.891 210.758 180.246 211.835 182.046 214.671C184.301 218.223 190.583 222.562 192.702 221.592C192.971 221.419 193.193 221.182 193.347 220.901C193.501 220.621 193.582 220.307 193.584 219.987C190.624 221.236 187.563 219.04 184.627 215.796Z" fill="white" stroke="#263238" stroke-linecap="round" stroke-linejoin="round"/>
<path d="M211.036 161.521L211.196 166.358C211.196 166.358 201.375 170.058 196.544 173.462C191.713 176.866 188.493 179.417 188.007 182.638C187.522 185.858 187.848 210.823 187.848 210.823C187.848 210.823 186.397 211.143 186.883 212.108C187.368 213.073 188.327 216.619 189.618 216.938C190.908 217.258 192.518 217.909 192.838 217.104C193.158 216.299 194.129 211.468 194.774 209.858C195.419 208.248 196.544 200.688 197.509 195.36C198.074 192.386 198.397 189.37 198.474 186.344C201.874 185.87 205.22 185.061 208.461 183.928C214.097 181.993 222.308 178.452 222.308 178.452C222.308 178.452 228.915 195.028 230.365 198.261C231.815 201.493 237.469 208.727 238.576 210.823C239.683 212.919 246.787 221.935 246.787 221.935C246.787 221.935 249.528 219.52 251.298 219.52H253.713C253.713 219.52 250.813 211.468 248.385 206.632C245.958 201.795 240.979 193.91 240.979 193.91C240.979 193.91 236.474 165.736 236.309 163.795C235.995 160.077 233.615 154.465 233.615 154.465C233.615 154.465 225.854 152.825 211.036 161.521Z" fill="#263238" stroke="#263238" stroke-linecap="round" stroke-linejoin="round"/>
<path d="M246.787 221.917C246.373 222.592 245.998 223.29 245.662 224.007C245.502 224.492 241.956 224.978 242.442 226.588C242.927 228.198 246.627 229.483 248.397 229.649C250.167 229.814 253.725 227.393 254.359 226.748C254.738 226.369 255.306 223.865 255.004 221.917C254.807 221.007 254.36 220.171 253.713 219.502C253.713 219.502 250.653 214.831 246.787 221.917Z" fill="white" stroke="#263238" stroke-linecap="round" stroke-linejoin="round"/>
<path d="M255.004 221.917C254.839 221.099 254.461 220.34 253.909 219.715C253.242 219.72 252.584 219.861 251.973 220.129C251.362 220.396 250.812 220.785 250.357 221.272C248.747 223.202 249.552 227.553 247.616 228.198C246.177 228.678 243.661 226.92 242.477 225.996C242.411 226.188 242.411 226.396 242.477 226.588C242.957 228.198 246.663 229.483 248.433 229.649C250.203 229.814 253.761 227.393 254.394 226.748C254.738 226.369 255.306 223.865 255.004 221.917Z" fill="white" stroke="#263238" stroke-linecap="round" stroke-linejoin="round"/>
<path d="M250.813 223.042C250.173 225.943 250.978 227.873 248.397 229.649C250.173 229.808 253.725 227.393 254.359 226.748C254.738 226.369 255.306 223.865 255.004 221.917C254.935 221.513 254.801 221.124 254.607 220.763H254.359C254.359 220.763 251.458 220.147 250.813 223.042Z" fill="#263238" stroke="#263238" stroke-linecap="round" stroke-linejoin="round"/>
<path d="M223.918 178.109L233.42 173.444" stroke="white" stroke-linecap="round" stroke-linejoin="round"/>
<path d="M228.269 176.019L236.48 174.889" stroke="white" stroke-linecap="round" stroke-linejoin="round"/>
<path d="M231.472 108.863C228.737 109.183 221.651 114.013 221.165 114.499C220.68 114.984 218.75 116.109 217.945 116.754C217.945 116.754 201.369 127.061 199.907 128.002C198.444 128.944 195.561 130.903 195.721 131.554C195.881 132.205 187.184 146.354 187.184 146.354C187.184 146.354 184.609 149.74 187.025 152.795C189.44 155.85 191.696 153.766 192.82 153.121C193.945 152.476 202.807 144.099 202.807 144.099L210.977 163.635C210.977 163.635 222.29 156.051 234.373 156.531L226.316 124.965C226.316 124.965 237.433 116.594 237.753 113.717C238.073 110.84 234.225 108.537 231.472 108.863Z" fill="white"/>
<path d="M231.472 108.863C230.377 108.993 228.583 109.846 226.789 110.852C227.198 110.773 227.621 110.817 228.005 110.977C228.389 111.137 228.718 111.406 228.95 111.752C230.282 113.463 227.429 118.974 227.429 118.974C227.429 118.974 226.245 111.361 226.292 113.646C226.339 115.931 225.7 122.958 225.7 122.958C225.7 122.958 221.899 118.4 222.089 119.537C222.278 120.673 224.747 131.317 226.268 135.308C227.79 139.298 225.126 150.504 223.61 153.731C222.095 156.957 223.018 140.055 221.325 144.259C219.632 148.462 213.919 160.024 212.587 161.166C211.255 162.309 213.013 145.673 213.487 143.507C212.895 145.318 208.982 156.797 208.982 156.797L203.654 143.116C203.654 143.116 194.537 135.71 195.484 137.036C196.432 138.362 198.717 142.548 198.717 142.548C198.717 142.548 193.205 141.405 194.158 141.79C195.111 142.175 199.285 144.259 199.285 144.259C199.285 144.259 190.737 150.338 188.268 151.096C187.604 151.291 186.921 151.416 186.231 151.469C186.409 151.965 186.667 152.429 186.995 152.843C189.41 155.903 191.666 153.813 192.791 153.168C193.916 152.523 202.778 144.146 202.778 144.146L210.947 163.682C210.947 163.682 222.261 156.099 234.343 156.578L226.286 125.013C226.286 125.013 237.404 116.642 237.724 113.765C238.043 110.888 234.225 108.537 231.472 108.863Z" fill="#FF8F00"/>
<path opacity="0.5" d="M231.472 108.863C230.377 108.993 228.583 109.846 226.789 110.852C227.198 110.773 227.621 110.817 228.005 110.977C228.389 111.137 228.718 111.406 228.95 111.752C230.282 113.463 227.429 118.974 227.429 118.974C227.429 118.974 226.245 111.361 226.292 113.646C226.339 115.931 225.7 122.958 225.7 122.958C225.7 122.958 221.899 118.4 222.089 119.537C222.278 120.673 224.747 131.317 226.268 135.308C227.79 139.298 225.126 150.504 223.61 153.731C222.095 156.957 223.018 140.055 221.325 144.259C219.632 148.462 213.919 160.024 212.587 161.166C211.255 162.309 213.013 145.673 213.487 143.507C212.895 145.318 208.982 156.797 208.982 156.797L203.654 143.116C203.654 143.116 194.537 135.71 195.484 137.036C196.432 138.362 198.717 142.548 198.717 142.548C198.717 142.548 193.205 141.405 194.158 141.79C195.111 142.175 199.285 144.259 199.285 144.259C199.285 144.259 190.737 150.338 188.268 151.096C187.604 151.291 186.921 151.416 186.231 151.469C186.409 151.965 186.667 152.429 186.995 152.843C189.41 155.903 191.666 153.813 192.791 153.168C193.916 152.523 202.778 144.146 202.778 144.146L210.947 163.682C210.947 163.682 222.261 156.099 234.343 156.578L226.286 125.013C226.286 125.013 237.404 116.642 237.724 113.765C238.043 110.888 234.225 108.537 231.472 108.863Z" fill="white"/>
<path d="M231.472 108.863C228.737 109.183 221.651 114.013 221.165 114.499C220.68 114.984 218.75 116.109 217.945 116.754C217.945 116.754 201.369 127.061 199.907 128.002C198.444 128.944 195.561 130.903 195.721 131.554C195.881 132.205 187.184 146.354 187.184 146.354C187.184 146.354 184.609 149.74 187.025 152.795C189.44 155.85 191.696 153.766 192.82 153.121C193.945 152.476 202.807 144.099 202.807 144.099L210.977 163.635C210.977 163.635 222.29 156.051 234.373 156.531L226.316 124.965C226.316 124.965 237.433 116.594 237.753 113.717C238.073 110.84 234.225 108.537 231.472 108.863Z" stroke="#263238" stroke-linecap="round" stroke-linejoin="round"/>
<path d="M210.995 163.635C210.523 159.204 210.753 154.727 211.676 150.368L210.995 163.635Z" fill="white"/>
<path d="M210.995 163.635C210.523 159.204 210.753 154.727 211.676 150.368" stroke="#263238" stroke-linecap="round" stroke-linejoin="round"/>
<path d="M209.467 153.766C209.467 153.766 209.467 151.043 212.528 142.518L209.467 153.766Z" fill="white"/>
<path d="M209.467 153.766C209.467 153.766 209.467 151.043 212.528 142.518" stroke="#263238" stroke-linecap="round" stroke-linejoin="round"/>
<path d="M196.544 137.048L202.825 144.128L196.384 139.457" fill="white"/>
<path d="M196.544 137.048L202.825 144.128L196.384 139.457" stroke="#263238" stroke-linecap="round" stroke-linejoin="round"/>
<path d="M226.333 115.949V124.965L228.429 113.374" fill="white"/>
<path d="M226.333 115.949V124.965L228.429 113.374" stroke="#263238" stroke-linecap="round" stroke-linejoin="round"/>
<path d="M213.582 143.264C213.558 143.329 213.54 143.397 213.529 143.465C213.6 143.264 213.623 143.187 213.582 143.264Z" fill="#263238"/>
</svg>
